<svg width="69" height="59" viewBox="0 0 69 59" fill="none" xmlns="http://www.w3.org/2000/svg">
<path d="M68.5 26.5599C68.5 23.2439 65.8189 20.5461 62.5235 20.5461H40.4765V6.51382C40.4765 3.1978 37.7954 0.5 34.4999 0.5C31.2045 0.5 28.5234 3.1978 28.5234 6.51382V20.5461H6.47655C3.18108 20.5461 0.5 23.2439 0.5 26.5599C0.5 29.3952 2.46071 31.777 5.08893 32.4083L7.62923 49.9213C8.34867 54.8922 12.4941 58.5 17.4862 58.5H51.514C56.506 58.5 60.6515 54.8922 61.3709 49.9215L63.9054 32.4098C66.5364 31.7804 68.5 29.3974 68.5 26.5599ZM32.5078 6.51382C32.5078 5.40848 33.4014 4.50922 34.4999 4.50922C35.5984 4.50922 36.4921 5.40848 36.4921 6.51382V20.5461H32.5078V6.51382ZM49.446 24.5565L34.4999 39.7476L19.554 24.5565H49.446ZM6.47655 24.5553H13.9463L17.8908 28.5645H6.47655C5.37806 28.5645 4.48437 27.6652 4.48437 26.5599C4.48437 25.4546 5.37806 24.5553 6.47655 24.5553ZM57.4281 49.3436C56.9965 52.3261 54.5092 54.4909 51.514 54.4909H17.4862C14.491 54.4909 12.0037 52.3262 11.5719 49.3431L9.13944 32.5737H21.8354L33.0843 44.0071C33.4584 44.3874 33.9682 44.6014 34.5001 44.6014C35.032 44.6014 35.5416 44.3873 35.9158 44.0071L47.1646 32.5737H59.8551L57.4281 49.3436ZM62.5235 28.5645H51.1092L55.0537 24.5553H62.5235C63.6219 24.5553 64.5156 25.4546 64.5156 26.5599C64.5156 27.6652 63.6219 28.5645 62.5235 28.5645Z" fill="#E2E9FF"/>
</svg>
