<svg width="88" height="86" viewBox="0 0 88 86" fill="none" xmlns="http://www.w3.org/2000/svg">
<path d="M20.7983 0C9.33567 0 0 9.19108 0 20.4762V65.5238C0 76.8089 9.33567 86 20.7983 86H66.5546C78.0173 86 87.353 76.8089 87.353 65.5238V20.4762C87.353 9.19108 78.0173 0 66.5546 0H20.7983ZM20.7983 4.09524H66.5546C75.7697 4.09524 83.1933 11.4039 83.1933 20.4762V65.5238C83.1933 74.5961 75.7697 81.9048 66.5546 81.9048H20.7983C11.5833 81.9048 4.15966 74.5961 4.15966 65.5238V20.4762C4.15966 11.4039 11.5833 4.09524 20.7983 4.09524ZM29.2192 14.4253C24.9653 14.2443 21.7366 15.8356 19.7056 17.7487C18.6901 18.7052 17.9569 19.7287 17.4552 20.6842C16.9534 21.6396 16.6346 22.4273 16.6346 23.4516C16.6346 23.3604 16.6117 23.8393 16.598 24.3955C16.5843 24.9516 16.5868 25.7013 16.6387 26.607C16.7426 28.4185 17.0544 30.8688 17.8817 33.7737C19.5362 39.5836 23.2618 47.205 31.3437 55.1617C39.4257 63.1185 47.1665 66.7858 53.0682 68.4153C56.0191 69.23 58.5075 69.5365 60.3476 69.639C61.2677 69.6903 62.025 69.6925 62.5899 69.679C63.1549 69.6655 63.645 69.643 63.5527 69.643C64.5931 69.643 65.3932 69.3292 66.3637 68.8352C67.3342 68.3412 68.3738 67.6194 69.3453 66.6196C71.2885 64.6201 72.9048 61.4414 72.721 57.2533C72.6338 55.2559 71.5074 53.4871 69.845 52.4382C68.5603 51.6278 66.566 50.3698 63.963 48.7309C60.9428 46.8312 57.08 46.6955 53.9294 48.395L54.1081 48.307L51.6586 49.3428L51.4799 49.4668C50.8845 49.8783 50.1472 49.9546 49.4773 49.6788C47.6007 48.9062 44.6768 47.3882 41.9582 44.7117C39.2395 42.0351 37.6977 39.1565 36.913 37.3091C36.6328 36.6495 36.7102 35.9236 37.1283 35.3374L37.2542 35.1615L38.3063 32.7499L38.2169 32.9259C39.9427 29.8249 39.8085 26.0219 37.8757 23.0477C36.2111 20.485 34.9332 18.5216 34.1101 17.2568C33.0447 15.6202 31.248 14.5112 29.2192 14.4253ZM29.0405 18.5166C29.6239 18.5413 30.2263 18.8773 30.6085 19.4644C31.4325 20.7305 32.711 22.6949 34.3741 25.2553C35.4778 26.9538 35.5554 29.1859 34.5691 30.9582L34.5203 31.0462L33.517 33.3538L33.7242 32.9819C32.495 34.7054 32.2479 36.9437 33.0742 38.8888C34.0116 41.0956 35.8041 44.4439 39.0172 47.6071C42.2302 50.7704 45.6312 52.5352 47.8727 53.4581C49.8483 54.2716 52.1218 54.0283 53.8725 52.8182L53.4947 53.0221L55.8386 52.0343L55.928 51.9863C57.7274 51.0157 59.9946 51.0966 61.7206 52.1823V52.1783C64.3214 53.8157 66.3167 55.0743 67.6027 55.8856C68.199 56.2619 68.5403 56.8549 68.5654 57.4293C68.7019 60.539 67.6048 62.4859 66.3393 63.7881C65.7066 64.4393 65.0204 64.9118 64.4545 65.1999C63.8886 65.4879 63.3473 65.5478 63.5527 65.5478C63.1712 65.5478 62.9703 65.5724 62.4925 65.5838C62.0146 65.5953 61.3741 65.5959 60.5832 65.5518C59.0016 65.4637 56.8184 65.1979 54.1894 64.472C48.9313 63.0203 41.8826 59.7465 34.2847 52.2663C26.6868 44.786 23.361 37.846 21.887 32.6699C21.15 30.0819 20.8795 27.932 20.7902 26.3751C20.7455 25.5966 20.7461 24.9659 20.7577 24.4954C20.7693 24.025 20.7943 23.8275 20.7943 23.4516C20.7943 23.6538 20.8551 23.121 21.1477 22.5638C21.4403 22.0066 21.9202 21.3311 22.5816 20.7081C23.9043 19.4622 25.8819 18.3822 29.0405 18.5166Z" fill="#C9BFB5"/>
</svg>
