<svg width="96" height="86" viewBox="0 0 96 86" fill="none" xmlns="http://www.w3.org/2000/svg">
<path d="M90.2945 0.00632713C89.2316 0.0522809 88.197 0.343807 87.264 0.712002C86.3405 1.07773 81.0239 3.31402 73.1728 6.62203C65.3216 9.93004 55.1158 14.2378 44.9989 18.5093C24.7651 27.0524 4.88192 35.4581 4.88192 35.4581L5.02684 35.4035C5.02684 35.4035 3.82679 35.7988 2.61011 36.6342C2.00177 37.0519 1.34729 37.5912 0.811409 38.3774C0.275531 39.1636 -0.116232 40.2779 0.0314047 41.4563C0.549971 45.5958 4.90323 46.7699 4.90323 46.7699L4.92028 46.7783L24.3479 53.331C24.8433 54.9594 30.2404 72.7118 31.4276 76.4713C32.0833 78.5498 32.697 79.7488 33.3372 80.5667C33.6575 80.976 33.9932 81.2928 34.3644 81.5244C34.5119 81.6164 34.667 81.6855 34.8204 81.747H34.829C34.8478 81.7552 34.8656 81.756 34.8844 81.7638L34.8332 81.7513C34.8689 81.7654 34.9041 81.7893 34.9398 81.8017C35.0091 81.8256 35.0515 81.8247 35.1401 81.8437C37.3651 82.6092 39.2064 81.1884 39.2064 81.1884L39.2831 81.1296L51.2176 70.221L70.5856 85.1032L70.8285 85.2124C74.2186 86.6958 77.2845 85.8682 78.9823 84.5067C80.6802 83.1453 81.3479 81.39 81.3479 81.39L81.4204 81.2052L95.6523 8.10479C96.0164 6.46937 96.0682 5.05573 95.7247 3.77833C95.3813 2.50093 94.5468 1.39049 93.4998 0.775009C92.4527 0.159529 91.3574 -0.0396267 90.2945 0.00632713ZM90.4096 4.37899C90.8413 4.35929 91.1612 4.40792 91.2621 4.4672C91.3629 4.52648 91.4082 4.51868 91.505 4.87885C91.6018 5.23901 91.6543 5.99762 91.3899 7.18489L91.3814 7.2101L77.2305 79.8863C77.197 79.9594 76.9021 80.6317 76.2289 81.1716C75.542 81.7223 74.7781 82.1523 72.7508 81.3144L51.5714 65.0377L50.9746 64.5756L50.9618 64.5882L44.628 59.9047L80.2227 18.6353C80.4962 18.319 80.6708 17.9314 80.7256 17.5194C80.7803 17.1073 80.7127 16.6885 80.531 16.3135C80.3493 15.9385 80.0613 15.6234 79.7017 15.4063C79.3422 15.1892 78.9265 15.0794 78.5049 15.0901C78.093 15.1007 77.6926 15.2259 77.3499 15.4514L25.844 49.2902L6.38652 42.7249C6.38652 42.7249 4.4544 41.6653 4.36192 40.9271C4.35679 40.8862 4.33398 40.9232 4.43438 40.7759C4.53478 40.6286 4.78715 40.3799 5.10356 40.1626C5.73638 39.7281 6.45898 39.4653 6.45898 39.4653L6.53144 39.4401L6.6039 39.4107C6.6039 39.4107 26.4881 31.0045 46.7208 22.4619C56.8372 18.1906 67.0413 13.886 74.8905 10.5789C82.7377 7.27252 88.4078 4.89264 88.888 4.70243C89.4345 4.48673 89.9779 4.39869 90.4096 4.37899ZM66.8049 27.5487L39.8116 58.8462L39.7988 58.8588C39.7567 58.9088 39.7169 58.9607 39.6795 59.0142C39.6367 59.0724 39.5968 59.1327 39.5601 59.1948C39.4085 59.4485 39.3113 59.7301 39.2746 60.0223C39.2745 60.0279 39.2745 60.0335 39.2746 60.0391L35.7582 75.6228C35.6997 75.4544 35.6588 75.3928 35.5962 75.1944V75.1901C34.4793 71.6535 29.3872 54.9114 28.6827 52.5959L66.8049 27.5487ZM42.8592 63.975L47.7097 67.5621L40.5831 74.0728L42.8592 63.975Z" fill="#C9BFB5"/>
</svg>
