<svg width="88" height="86" viewBox="0 0 88 86" fill="none" xmlns="http://www.w3.org/2000/svg">
<path d="M25.8088 0C11.5792 0 0 11.3999 0 25.4091V60.5909C0 74.6002 11.5792 86 25.8088 86H61.5441C75.7738 86 87.3529 74.6002 87.3529 60.5909V25.4091C87.3529 11.3999 75.7738 0 61.5441 0H25.8088ZM25.8088 3.90909H61.5441C73.6276 3.90909 83.3824 13.5128 83.3824 25.4091V60.5909C83.3824 72.4872 73.6276 82.0909 61.5441 82.0909H25.8088C13.7254 82.0909 3.97059 72.4872 3.97059 60.5909V25.4091C3.97059 13.5128 13.7254 3.90909 25.8088 3.90909ZM67.5 15.6364C66.4469 15.6364 65.437 16.0482 64.6924 16.7813C63.9477 17.5144 63.5294 18.5087 63.5294 19.5455C63.5294 20.5822 63.9477 21.5765 64.6924 22.3096C65.437 23.0427 66.4469 23.4545 67.5 23.4545C68.5531 23.4545 69.563 23.0427 70.3076 22.3096C71.0523 21.5765 71.4706 20.5822 71.4706 19.5455C71.4706 18.5087 71.0523 17.5144 70.3076 16.7813C69.563 16.0482 68.5531 15.6364 67.5 15.6364ZM43.6765 21.5C31.6391 21.5 21.8382 31.149 21.8382 43C21.8382 54.851 31.6391 64.5 43.6765 64.5C55.7139 64.5 65.5147 54.851 65.5147 43C65.5147 31.149 55.7139 21.5 43.6765 21.5ZM43.6765 25.4091C53.568 25.4091 61.5441 33.2617 61.5441 43C61.5441 52.7383 53.568 60.5909 43.6765 60.5909C33.7849 60.5909 25.8088 52.7383 25.8088 43C25.8088 33.2617 33.7849 25.4091 43.6765 25.4091Z" fill="#C9BFB5"/>
</svg>
