<svg width="135" height="87" viewBox="0 0 135 87" fill="none" xmlns="http://www.w3.org/2000/svg">
<path d="M10.6196 0.183594C3.74852 0.183594 -1.48351 6.93999 0.411392 13.5829C5.34512 30.8988 12.6589 47.8552 23.5758 61.1871C34.4927 74.519 49.2575 84.1826 68.1385 86.0998C74.4232 86.7374 79.8434 81.6143 79.8434 75.4007V62.9952C79.8434 62.2211 80.3721 61.6711 80.975 61.6541C81.0867 61.6514 81.1759 61.6481 81.2325 61.6481C83.4008 61.6481 87.8563 64.3646 91.7699 68.5872C95.6836 72.8099 99.1451 78.0373 100.811 80.9328V80.9388C102.695 84.2093 106.207 86.1836 109.941 86.1836H124.879C132.319 86.1891 137.297 77.7849 133.656 71.2755C127.94 61.0514 116.536 50.9392 110.833 45.8958C121.282 34.4214 128.21 21.9168 131.279 13.6248C133.596 7.35996 128.819 0.309325 122.083 0.309325H111.42C106.785 0.309325 102.463 2.56775 100.697 6.18276C92.398 23.1887 85.0007 29.4347 79.7896 33.9334V10.8588C79.7896 5.10208 75.013 0.356001 69.2761 0.345248L50.602 0.315312C44.6554 0.307955 40.9681 7.65243 44.531 12.4154L48.1353 17.2411L48.1413 17.2531C48.759 18.07 49.0873 19.0488 49.0873 20.0551V20.0611L49.1591 39.3039C41.7317 31.4707 33.6623 14.8779 31.2275 7.47599V7.47C29.8054 3.14623 25.7144 0.226791 21.1989 0.21353H21.1929L10.6255 0.183594H10.6196ZM10.6196 9.37992L21.175 9.40985C21.8238 9.41139 22.3009 9.76148 22.4921 10.3439C25.5156 19.5378 33.4592 37.0554 43.5311 46.8657C46.1466 49.4138 49.9854 49.9303 52.961 48.7217C55.9366 47.5132 58.3614 44.3811 58.3614 40.7049V40.6989L58.2836 20.0551C58.2836 17.0485 57.2993 14.1246 55.4935 11.7269L55.4876 11.7149L53.8411 9.51762L69.2581 9.54157C70.063 9.54314 70.5932 10.0676 70.5932 10.8588V34.1669C70.5932 41.6305 79.993 45.9188 85.645 41.0402H85.651C90.8318 36.565 99.9996 28.5779 108.959 10.2181C109.167 9.79288 108.986 9.50565 111.42 9.50565H122.083C122.704 9.50565 122.886 9.80131 122.652 10.4337C120.044 17.4788 113.389 29.7645 103.523 40.3936C100.482 43.6702 100.606 49.0839 104.044 52.1285C109.433 56.8955 121.196 67.8333 125.627 75.7599C126.033 76.4849 125.728 76.9879 124.885 76.9873H109.941C109.427 76.9873 109.004 76.7363 108.78 76.3466C106.788 72.8844 103.136 67.3195 98.5175 62.3366C93.8993 57.3538 88.4015 52.4518 81.2325 52.4518C81.0294 52.4518 80.863 52.4545 80.7355 52.4578H80.7236H80.7176C75.0118 52.6186 70.6471 57.4606 70.6471 62.9952V75.4007C70.6471 76.354 69.912 77.0371 69.0665 76.9513C52.747 75.2942 40.4466 67.2781 30.6886 55.3615C20.9307 43.445 13.9616 27.5828 9.25447 11.0623C8.9913 10.1397 9.55722 9.37992 10.6196 9.37992Z" fill="#C9BFB5"/>
</svg>
