<svg width="55" height="52" viewBox="0 0 55 52" fill="none" xmlns="http://www.w3.org/2000/svg">
<path d="M17.777 8.5188C20.446 5.88722 20.446 3.63158 20.446 1C25.7842 1 30.741 1.00037 34.9353 1C36.0791 6.63946 38.3669 10.8034 42.9424 11.1504C46.9079 11.4511 51.9664 11.2757 54 11.1504V26.5639L42.9424 51H12.4388L1 26.5639V11.1504H13.5827C14.4724 13.0301 17.0906 16.9398 20.446 17.5414C23.8014 18.1429 29.7486 18.5112 31.5036 17.1654C34.9353 14.5338 25.9186 10.5526 27.6906 17.5414C28.8345 22.0526 30.3597 25.812 36.0791 25.812C30.3597 25.812 27.6906 28.8195 27.6906 34.4586C27.6906 28.8195 23.4964 25.6303 18.9209 25.812C23.4964 25.812 23.8777 25.4365 25.7842 22.8049" stroke="#E2E9FF" stroke-width="2" stroke-linecap="round" stroke-linejoin="round"/>
</svg>
